<?xml version="1.0" encoding="utf-8"?>
<!-- Generator: Adobe Illustrator 15.0.0, SVG Export Plug-In  -->
<!DOCTYPE svg PUBLIC "-//W3C//DTD SVG 1.1//EN" "http://www.w3.org/Graphics/SVG/1.1/DTD/svg11.dtd" [
	<!ENTITY ns_flows "http://ns.adobe.com/Flows/1.0/">
]>
<svg version="1.1"
	 xmlns="http://www.w3.org/2000/svg" xmlns:xlink="http://www.w3.org/1999/xlink" xmlns:a="http://ns.adobe.com/AdobeSVGViewerExtensions/3.0/"
	 x="0px" y="0px" width="127px" height="50px" viewBox="0 0 127 50" overflow="visible" enable-background="new 0 0 127 50"
	 xml:space="preserve">
<defs>
</defs>
<path fill="#FFFFFF" d="M58.951,9.554c0-1.066-0.168-1.844-0.505-2.335c-0.336-0.491-0.839-0.736-1.506-0.736
	c-0.894,0-1.51,0.367-1.847,1.102v4.163c0.343,0.742,0.966,1.112,1.866,1.112c0.907,0,1.503-0.449,1.788-1.346
	C58.883,11.085,58.951,10.432,58.951,9.554 M61.759,9.769c0,1.685-0.359,2.999-1.079,3.941c-0.719,0.942-1.724,1.414-3.013,1.414
	c-1.141,0-2.051-0.437-2.731-1.312L54.81,14.93h-2.527V0h2.809v5.355c0.648-0.758,1.5-1.137,2.557-1.137
	c1.283,0,2.289,0.472,3.018,1.414c0.729,0.943,1.094,2.27,1.094,3.98L61.759,9.769L61.759,9.769z"/>
<path fill="#FFFFFF" d="M67.372,6.483c-0.557,0-1.009,0.189-1.355,0.567c-0.347,0.377-0.569,0.917-0.666,1.62h3.907V8.445
	c-0.014-0.625-0.182-1.108-0.506-1.449C68.429,6.654,67.969,6.483,67.372,6.483 M67.692,15.124c-1.542,0-2.797-0.473-3.766-1.418
	c-0.969-0.946-1.453-2.207-1.453-3.781V9.652c0-1.056,0.204-2.001,0.612-2.833s0.986-1.474,1.735-1.924
	c0.748-0.45,1.602-0.676,2.561-0.676c1.438,0,2.57,0.454,3.397,1.361c0.826,0.907,1.239,2.193,1.239,3.858v1.147h-6.697
	c0.091,0.687,0.364,1.238,0.821,1.652c0.457,0.415,1.035,0.622,1.735,0.622c1.082,0,1.927-0.392,2.536-1.176l1.381,1.545
	c-0.422,0.597-0.992,1.061-1.711,1.395C69.365,14.957,68.567,15.124,67.692,15.124"/>
<path fill="#FFFFFF" d="M76.478,1.828v2.585h2.116v2.061h-2.116v5.249c0,0.389,0.074,0.667,0.224,0.835
	c0.149,0.169,0.435,0.253,0.855,0.253c0.311,0,0.587-0.022,0.826-0.068v2.129c-0.551,0.169-1.118,0.252-1.701,0.252
	c-1.97,0-2.975-0.994-3.013-2.984V6.474h-1.536V4.413h1.536V1.828H76.478z"/>
<path fill="#FFFFFF" d="M83.661,1.828v2.585h1.798v2.061h-1.798v5.249c0,0.389,0.074,0.667,0.224,0.835
	c0.148,0.169,0.434,0.253,0.854,0.253c0.312,0,0.586-0.022,0.826-0.068v2.129c-0.55,0.169-1.117,0.252-1.7,0.252
	c-1.97,0-2.975-0.994-3.014-2.984V6.474h-1.535V4.413h1.535V1.828H83.661z"/>
<path fill="#FFFFFF" d="M90.985,6.483c-0.557,0-1.008,0.189-1.355,0.567c-0.347,0.377-0.568,0.917-0.666,1.62h3.907V8.445
	c-0.013-0.625-0.181-1.108-0.505-1.449C92.042,6.654,91.582,6.483,90.985,6.483 M91.307,15.124c-1.542,0-2.797-0.473-3.767-1.418
	c-0.969-0.946-1.453-2.207-1.453-3.781V9.652c0-1.056,0.205-2.001,0.612-2.833c0.408-0.833,0.987-1.474,1.735-1.924
	c0.749-0.45,1.603-0.676,2.561-0.676c1.438,0,2.571,0.454,3.397,1.361s1.239,2.193,1.239,3.858v1.147h-6.696
	c0.091,0.687,0.363,1.238,0.82,1.652c0.458,0.415,1.035,0.622,1.735,0.622c1.082,0,1.928-0.392,2.536-1.176l1.381,1.545
	c-0.422,0.597-0.991,1.061-1.711,1.395C92.979,14.957,92.182,15.124,91.307,15.124"/>
<path fill="#FFFFFF" d="M102.638,7.047c-0.382-0.052-0.719-0.078-1.011-0.078c-1.062,0-1.76,0.36-2.089,1.079v6.881h-2.81V4.413
	h2.653l0.078,1.254c0.563-0.966,1.345-1.449,2.343-1.449c0.31,0,0.602,0.042,0.874,0.126L102.638,7.047z"/>
<path fill="#FFFFFF" d="M57.979,29.489c0-0.344-0.17-0.614-0.51-0.812c-0.34-0.197-0.886-0.375-1.638-0.53
	c-2.501-0.524-3.751-1.587-3.751-3.188c0-0.933,0.387-1.712,1.161-2.337c0.774-0.625,1.787-0.938,3.037-0.938
	c1.335,0,2.402,0.314,3.203,0.943c0.8,0.628,1.2,1.445,1.2,2.449h-2.809c0-0.402-0.129-0.734-0.389-0.997s-0.664-0.394-1.215-0.394
	c-0.473,0-0.839,0.107-1.099,0.321c-0.259,0.214-0.389,0.486-0.389,0.816c0,0.311,0.147,0.562,0.442,0.753
	c0.295,0.191,0.792,0.356,1.492,0.496s1.289,0.296,1.769,0.472c1.484,0.544,2.226,1.487,2.226,2.828
	c0,0.959-0.412,1.735-1.235,2.328c-0.822,0.593-1.885,0.89-3.188,0.89c-0.882,0-1.664-0.158-2.348-0.472
	c-0.683-0.314-1.22-0.745-1.608-1.293c-0.389-0.547-0.583-1.139-0.583-1.773h2.663c0.025,0.499,0.21,0.881,0.553,1.146
	c0.344,0.266,0.804,0.398,1.38,0.398c0.538,0,0.944-0.103,1.22-0.306C57.841,30.087,57.979,29.819,57.979,29.489"/>
<path fill="#FFFFFF" d="M66.168,30.325c0.516,0,0.935-0.143,1.257-0.428c0.323-0.285,0.49-0.664,0.503-1.138h2.621
	c-0.007,0.714-0.2,1.366-0.58,1.959c-0.381,0.593-0.9,1.053-1.562,1.38s-1.392,0.491-2.19,0.491c-1.496,0-2.676-0.478-3.54-1.434
	s-1.296-2.276-1.296-3.961v-0.185c0-1.62,0.429-2.913,1.287-3.878c0.857-0.965,2.034-1.448,3.53-1.448
	c1.309,0,2.357,0.374,3.147,1.123s1.191,1.744,1.205,2.989h-2.622c-0.013-0.547-0.18-0.992-0.502-1.334
	c-0.323-0.342-0.748-0.513-1.277-0.513c-0.651,0-1.143,0.238-1.475,0.715c-0.332,0.478-0.498,1.251-0.498,2.321v0.292
	c0,1.084,0.164,1.862,0.493,2.337S65.497,30.325,66.168,30.325"/>
<path fill="#FFFFFF" d="M74.552,32.396h-2.805V21.878h2.805V32.396z M71.583,19.157c0-0.421,0.14-0.768,0.42-1.04
	c0.281-0.272,0.663-0.408,1.146-0.408c0.478,0,0.857,0.136,1.141,0.408c0.284,0.272,0.426,0.619,0.426,1.04
	c0,0.428-0.144,0.777-0.431,1.049c-0.286,0.272-0.665,0.408-1.136,0.408s-0.85-0.136-1.137-0.408
	C71.726,19.935,71.583,19.585,71.583,19.157"/>
<path fill="#FFFFFF" d="M80.445,23.949c-0.554,0-1.004,0.188-1.349,0.566s-0.565,0.917-0.662,1.621h3.888v-0.225
	c-0.014-0.625-0.181-1.108-0.503-1.45S81.039,23.949,80.445,23.949 M80.765,32.59c-1.534,0-2.784-0.473-3.747-1.419
	c-0.964-0.946-1.445-2.207-1.445-3.781v-0.271c0-1.057,0.202-2.001,0.608-2.834c0.406-0.833,0.981-1.474,1.727-1.924
	c0.745-0.45,1.594-0.675,2.548-0.675c1.432,0,2.558,0.453,3.38,1.361c0.822,0.907,1.233,2.194,1.233,3.859v1.146h-6.663
	c0.091,0.688,0.362,1.237,0.817,1.652c0.454,0.415,1.03,0.622,1.726,0.622c1.077,0,1.919-0.393,2.524-1.176l1.373,1.545
	c-0.419,0.596-0.986,1.062-1.701,1.395C82.429,32.423,81.636,32.59,80.765,32.59"/>
<path fill="#FFFFFF" d="M88.697,21.878l0.087,1.215c0.746-0.939,1.746-1.409,3-1.409c1.106,0,1.93,0.327,2.47,0.981
	c0.54,0.655,0.816,1.633,0.829,2.935v6.795h-2.787v-6.741c0-0.599-0.129-1.031-0.386-1.302c-0.258-0.269-0.686-0.403-1.283-0.403
	c-0.785,0-1.373,0.337-1.766,1.013v7.434h-2.787V21.878H88.697L88.697,21.878z"/>
<path fill="#FFFFFF" d="M105.409,32.396h-2.805V21.878h2.805V32.396z M102.44,19.157c0-0.421,0.14-0.768,0.42-1.04
	c0.28-0.272,0.663-0.408,1.146-0.408c0.478,0,0.857,0.136,1.141,0.408c0.284,0.272,0.426,0.619,0.426,1.04
	c0,0.428-0.144,0.777-0.431,1.049c-0.287,0.272-0.665,0.408-1.136,0.408s-0.85-0.136-1.137-0.408
	C102.584,19.935,102.44,19.585,102.44,19.157"/>
<path fill="#FFFFFF" d="M116.831,32.396h-2.805V21.878h2.805V32.396L116.831,32.396z M113.861,19.157
	c0-0.421,0.141-0.768,0.421-1.04c0.28-0.272,0.662-0.408,1.146-0.408c0.477,0,0.856,0.136,1.141,0.408
	c0.284,0.272,0.425,0.619,0.425,1.04c0,0.428-0.143,0.777-0.43,1.049c-0.287,0.272-0.666,0.408-1.137,0.408s-0.85-0.136-1.136-0.408
	C114.006,19.935,113.861,19.585,113.861,19.157"/>
<path fill="#FFFFFF" d="M122.619,30.325c0.517,0,0.936-0.143,1.258-0.428c0.323-0.285,0.489-0.664,0.503-1.138H127
	c-0.006,0.714-0.199,1.366-0.58,1.959c-0.38,0.593-0.9,1.053-1.562,1.38s-1.392,0.491-2.19,0.491c-1.496,0-2.675-0.478-3.539-1.434
	s-1.297-2.276-1.297-3.961v-0.185c0-1.62,0.429-2.913,1.287-3.878c0.857-0.965,2.034-1.448,3.529-1.448
	c1.309,0,2.357,0.374,3.147,1.123s1.191,1.744,1.204,2.989h-2.62c-0.014-0.547-0.181-0.992-0.503-1.334
	c-0.322-0.342-0.748-0.513-1.277-0.513c-0.651,0-1.143,0.238-1.475,0.715c-0.331,0.478-0.497,1.251-0.497,2.321v0.292
	c0,1.084,0.164,1.862,0.492,2.337C121.449,30.089,121.949,30.325,122.619,30.325"/>
<path fill="#FFFFFF" d="M57.979,46.955c0-0.343-0.17-0.613-0.51-0.812c-0.34-0.197-0.886-0.374-1.638-0.53
	c-2.501-0.524-3.751-1.587-3.751-3.188c0-0.933,0.387-1.712,1.161-2.337c0.774-0.625,1.787-0.938,3.037-0.938
	c1.335,0,2.402,0.314,3.203,0.942c0.8,0.628,1.2,1.445,1.2,2.449h-2.809c0-0.401-0.129-0.733-0.389-0.996s-0.664-0.394-1.215-0.394
	c-0.473,0-0.839,0.106-1.099,0.32c-0.259,0.214-0.389,0.486-0.389,0.816c0,0.312,0.147,0.562,0.442,0.754
	c0.295,0.19,0.792,0.355,1.492,0.495s1.289,0.297,1.769,0.472c1.484,0.544,2.226,1.487,2.226,2.828c0,0.959-0.412,1.735-1.235,2.328
	c-0.822,0.593-1.885,0.89-3.188,0.89c-0.882,0-1.664-0.157-2.348-0.472c-0.683-0.314-1.22-0.745-1.608-1.293
	c-0.389-0.547-0.583-1.139-0.583-1.773h2.663c0.025,0.499,0.21,0.882,0.553,1.146c0.344,0.267,0.804,0.398,1.38,0.398
	c0.538,0,0.944-0.102,1.22-0.306C57.841,47.553,57.979,47.286,57.979,46.955"/>
<path fill="#FFFFFF" d="M64.192,44.705c0,1,0.188,1.764,0.563,2.293c0.376,0.528,0.914,0.793,1.614,0.793
	c0.68,0,1.211-0.261,1.594-0.783c0.383-0.523,0.574-1.358,0.574-2.507c0-0.98-0.191-1.739-0.574-2.278
	c-0.383-0.538-0.92-0.808-1.613-0.808c-0.688,0-1.219,0.268-1.595,0.803C64.381,42.754,64.192,43.583,64.192,44.705 M61.384,44.506
	c0-1.043,0.201-1.974,0.603-2.79c0.402-0.816,0.98-1.448,1.735-1.895c0.754-0.447,1.631-0.671,2.629-0.671
	c1.419,0,2.577,0.435,3.475,1.302c0.897,0.869,1.398,2.048,1.502,3.538l0.02,0.72c0,1.613-0.451,2.907-1.352,3.883
	c-0.901,0.976-2.109,1.463-3.625,1.463c-1.517,0-2.727-0.486-3.63-1.458s-1.356-2.294-1.356-3.966V44.506L61.384,44.506z"/>
<path fill="#FFFFFF" d="M72.99,49.861v-8.456h-1.576v-2.062h1.576V38.45c0-1.179,0.341-2.095,1.023-2.745
	c0.682-0.652,1.637-0.978,2.864-0.978c0.392,0,0.871,0.064,1.439,0.192l-0.029,2.16c-0.235-0.059-0.522-0.088-0.861-0.088
	c-1.065,0-1.597,0.5-1.597,1.5v0.852h2.105v2.062H75.83v8.456H72.99L72.99,49.861z"/>
<path fill="#FFFFFF" d="M83.153,36.759v2.585h1.812v2.062h-1.812v5.249c0,0.389,0.075,0.667,0.226,0.835
	c0.149,0.169,0.438,0.253,0.861,0.253c0.313,0,0.591-0.022,0.833-0.067v2.128c-0.556,0.169-1.127,0.253-1.714,0.253
	c-1.984,0-2.997-0.994-3.036-2.984v-5.666h-1.547v-2.062h1.547v-2.585H83.153z"/>
<polygon fill="#FFFFFF" points="97.564,39.344 96.143,46.041 94.17,39.344 92.078,39.344 90.096,46.031 88.684,39.344 
	85.891,39.344 88.653,49.861 91.066,49.861 93.119,43.242 95.171,49.861 97.594,49.861 100.356,39.344 "/>
<path fill="#FFFFFF" d="M104.636,47.907c0.418,0,0.803-0.092,1.155-0.276c0.353-0.186,0.614-0.433,0.784-0.744v-1.808h-1.058
	c-1.417,0-2.171,0.486-2.263,1.458l-0.01,0.165c0,0.35,0.124,0.639,0.372,0.865S104.205,47.907,104.636,47.907 M106.977,49.861
	c-0.131-0.253-0.226-0.567-0.284-0.943c-0.686,0.759-1.576,1.138-2.673,1.138c-1.039,0-1.898-0.298-2.581-0.895
	c-0.683-0.596-1.023-1.347-1.023-2.255c0-1.114,0.416-1.97,1.249-2.565c0.832-0.597,2.034-0.897,3.608-0.904h1.302v-0.603
	c0-0.486-0.125-0.875-0.377-1.166c-0.251-0.292-0.647-0.438-1.189-0.438c-0.477,0-0.851,0.113-1.121,0.34
	c-0.271,0.227-0.406,0.538-0.406,0.934h-2.83c0-0.609,0.189-1.173,0.567-1.691c0.379-0.519,0.914-0.925,1.606-1.22
	c0.691-0.295,1.469-0.442,2.331-0.442c1.306,0,2.341,0.326,3.108,0.978c0.768,0.65,1.151,1.566,1.151,2.745v4.559
	c0.006,0.998,0.146,1.752,0.421,2.265v0.165H106.977L106.977,49.861z"/>
<path fill="#FFFFFF" d="M116.922,41.979c-0.385-0.052-0.724-0.078-1.018-0.078c-1.071,0-1.773,0.36-2.105,1.08v6.881h-2.83V39.345
	h2.673l0.078,1.254c0.568-0.966,1.355-1.448,2.36-1.448c0.313,0,0.607,0.042,0.881,0.126L116.922,41.979z"/>
<path fill="#FFFFFF" d="M122.296,41.415c-0.562,0-1.018,0.188-1.366,0.566c-0.349,0.377-0.573,0.917-0.671,1.62h3.937v-0.225
	c-0.014-0.625-0.183-1.107-0.509-1.449C123.359,41.586,122.896,41.415,122.296,41.415 M122.618,50.056
	c-1.554,0-2.818-0.473-3.794-1.419c-0.977-0.946-1.464-2.206-1.464-3.781v-0.271c0-1.057,0.205-2.001,0.617-2.834
	c0.41-0.832,0.993-1.474,1.747-1.924c0.755-0.451,1.614-0.676,2.581-0.676c1.449,0,2.59,0.453,3.422,1.361
	c0.832,0.907,1.249,2.193,1.249,3.858v1.146h-6.747c0.091,0.687,0.366,1.238,0.827,1.652c0.46,0.415,1.043,0.622,1.748,0.622
	c1.09,0,1.942-0.392,2.556-1.177l1.391,1.546c-0.425,0.597-0.998,1.062-1.723,1.396C124.303,49.889,123.5,50.056,122.618,50.056"/>
<path fill="#C3E7EF" d="M32.165,27.479v21.06c5.512-0.34,9.894-4.933,9.894-10.529S37.677,27.819,32.165,27.479 M31.508,49.871
	c-0.362,0-0.656-0.293-0.656-0.655V26.804c0-0.363,0.294-0.656,0.656-0.656c6.541,0,11.862,5.321,11.862,11.861
	C43.371,44.551,38.049,49.871,31.508,49.871"/>
<path fill="#4EC8EF" d="M16.688,48.56h9.95V27.418h-9.95V48.56L16.688,48.56z M27.294,49.871H16.032
	c-0.362,0-0.656-0.293-0.656-0.655V26.762c0-0.362,0.294-0.656,0.656-0.656h11.262c0.362,0,0.656,0.294,0.656,0.656v22.454
	C27.95,49.578,27.656,49.871,27.294,49.871"/>
<path fill="#C3E7EF" d="M32.165,1.412v21.059c5.512-0.34,9.894-4.933,9.894-10.529S37.677,1.752,32.165,1.412 M31.508,23.804
	c-0.362,0-0.656-0.293-0.656-0.656V0.736c0-0.363,0.294-0.656,0.656-0.656c6.541,0,11.862,5.322,11.862,11.862
	C43.371,18.482,38.049,23.804,31.508,23.804"/>
<path fill="#4EC8EF" d="M16.688,22.492h9.95V1.35h-9.95V22.492L16.688,22.492z M27.294,23.804H16.032
	c-0.362,0-0.656-0.293-0.656-0.656V0.694c0-0.363,0.294-0.656,0.656-0.656h11.262c0.362,0,0.656,0.293,0.656,0.656v22.453
	C27.95,23.51,27.656,23.804,27.294,23.804"/>
<path fill="#5794CF" d="M1.312,48.521h9.95V1.35h-9.95V48.521z M11.918,49.832H0.656C0.294,49.832,0,49.539,0,49.176V0.694
	c0-0.362,0.294-0.657,0.656-0.657h11.262c0.362,0,0.656,0.294,0.656,0.657v48.481C12.575,49.539,12.281,49.832,11.918,49.832"/>
<path fill="#FFFFFF" d="M110.748,21.026c0-1,0.557-1.482,1.607-1.482c0.181,0,0.362,0.043,0.513,0.043h0.007l0.118-2.167
	c-0.422-0.083-0.839-0.149-1.149-0.149c-1.212,0-2.237,0.321-2.911,0.972c-0.674,0.651-1.093,1.563-1.093,2.742v1.063h-1.342v2.014
	h1.342v8.501h2.908v-8.501h2.237v-2.014h-2.237V21.026L110.748,21.026z"/>
<path fill="#FFFFFF" d="M100.813,30.277c-0.42,0-0.68-0.085-0.828-0.254c-0.148-0.168-0.199-0.446-0.199-0.835v-5.127h2.014v-2.014
	h-2.014v-2.908h-3.133v2.908h-1.118v2.014h1.118v5.544c0,1.989,1.267,2.984,3.226,2.984c0.581,0,1.025-0.084,1.921-0.253v-2.128
	C101.352,30.254,101.122,30.277,100.813,30.277"/>
</svg>
